<svg width="63" height="46" viewBox="0 0 63 46" fill="none" xmlns="http://www.w3.org/2000/svg">
<g clip-path="url(#clip0_10648_1936)">
<path d="M0 0H61C62.1046 0 63 0.895431 63 2V43.913C63 45.0176 62.1046 45.913 61 45.913H0V0Z" fill="#FD7E14"/>
<path fill-rule="evenodd" clip-rule="evenodd" d="M25.55 20.8944C25.2607 20.5925 25.2607 20.1031 25.55 19.8012C25.8129 19.5268 26.2245 19.5019 26.5145 19.7264L26.5975 19.8012L31.9997 25.4379L37.4018 19.8012C37.6648 19.5268 38.0763 19.5019 38.3663 19.7264L38.4494 19.8012C38.7124 20.0757 38.7363 20.5051 38.5211 20.8077L38.4494 20.8944L32.5235 27.0779C32.2605 27.3523 31.849 27.3773 31.559 27.1528L31.4759 27.0779L25.55 20.8944Z" fill="white"/>
</g>
<defs>
<clipPath id="clip0_10648_1936">
<rect width="63" height="45.913" fill="white"/>
</clipPath>
</defs>
</svg>
